<svg width="74" height="66" viewBox="0 0 74 66" fill="none" xmlns="http://www.w3.org/2000/svg">
<path d="M16.5117 16.3281C16.7852 16.4323 17.1497 16.6992 17.6055 17.1289C18.0742 17.5456 18.6016 18.0794 19.1875 18.7305C19.7865 19.3815 20.444 20.1172 21.1602 20.9375C21.8893 21.7578 22.6576 22.6042 23.4648 23.4766C24.0638 24.1276 24.6562 24.7917 25.2422 25.4688C25.8411 26.1328 26.4141 26.7773 26.9609 27.4023C27.5078 28.0273 28.0221 28.6133 28.5039 29.1602C28.9987 29.707 29.4414 30.1888 29.832 30.6055C30.2357 31.0091 30.5872 31.3281 30.8867 31.5625C31.1862 31.7969 31.4206 31.9141 31.5898 31.9141C31.694 31.9141 31.7852 31.8034 31.8633 31.582C31.9414 31.3607 32.0065 31.0677 32.0586 30.7031C32.1237 30.3385 32.1758 29.9284 32.2148 29.4727C32.2539 29.0169 32.2865 28.5547 32.3125 28.0859C32.3385 27.6172 32.3581 27.1615 32.3711 26.7188C32.3841 26.276 32.3906 25.8919 32.3906 25.5664C32.3906 25.1237 32.3776 24.6289 32.3516 24.082C32.3385 23.5352 32.3125 23.0078 32.2734 22.5C32.2344 21.9792 32.1758 21.5104 32.0977 21.0938C32.0326 20.6641 31.9479 20.3385 31.8438 20.1172C31.6875 19.8047 31.5117 19.5443 31.3164 19.3359C31.1211 19.1276 30.8802 18.9583 30.5938 18.8281C30.3073 18.6849 29.9622 18.5742 29.5586 18.4961C29.1549 18.418 28.6602 18.3464 28.0742 18.2812C27.6966 18.2422 27.4362 18.1771 27.293 18.0859C27.1497 17.9948 27.0781 17.8581 27.0781 17.6758C27.0781 17.4935 27.1497 17.3763 27.293 17.3242C27.4362 17.2721 27.5924 17.2461 27.7617 17.2461C27.8919 17.2461 28.0872 17.2591 28.3477 17.2852C28.6211 17.2982 28.9401 17.3177 29.3047 17.3438C29.6693 17.3568 30.0599 17.3698 30.4766 17.3828C30.9062 17.3958 31.3424 17.4023 31.7852 17.4023C32.5013 17.4023 33.2109 17.3503 33.9141 17.2461C34.6172 17.1419 35.2747 17.0312 35.8867 16.9141C36.4987 16.7839 37.0456 16.6667 37.5273 16.5625C38.0091 16.4583 38.3802 16.4062 38.6406 16.4062C39.0312 16.4062 39.2266 16.5625 39.2266 16.875C39.2266 17.0833 39.1419 17.2331 38.9727 17.3242C38.8164 17.4154 38.6471 17.4805 38.4648 17.5195C38.2305 17.5716 38.0156 17.6172 37.8203 17.6562C37.625 17.6823 37.4362 17.7148 37.2539 17.7539C37.0716 17.793 36.8828 17.8451 36.6875 17.9102C36.4922 17.9622 36.2773 18.0339 36.043 18.125C35.8477 18.1901 35.6523 18.2878 35.457 18.418C35.2747 18.5482 35.099 18.724 34.9297 18.9453C34.7604 19.1536 34.6042 19.4206 34.4609 19.7461C34.3307 20.0586 34.2266 20.4362 34.1484 20.8789C34.0703 21.3477 33.9987 22.0052 33.9336 22.8516C33.8815 23.6849 33.8294 24.6224 33.7773 25.6641C33.7253 26.6927 33.6797 27.7799 33.6406 28.9258C33.6146 30.0586 33.582 31.1589 33.543 32.2266C33.5169 33.2812 33.4909 34.2643 33.4648 35.1758C33.4518 36.0742 33.4388 36.8034 33.4258 37.3633C33.3867 39.4336 33.3216 40.9635 33.2305 41.9531C33.1523 42.9427 33.0221 43.4375 32.8398 43.4375C32.7357 43.4375 32.5339 43.3073 32.2344 43.0469C31.9479 42.7734 31.6029 42.4154 31.1992 41.9727C30.7956 41.5169 30.3464 40.9961 29.8516 40.4102C29.3568 39.8112 28.849 39.1927 28.3281 38.5547C27.8073 37.9036 27.2865 37.2461 26.7656 36.582C26.2448 35.9049 25.7565 35.2734 25.3008 34.6875C24.8451 34.0885 24.4284 33.5482 24.0508 33.0664C23.6862 32.5716 23.3997 32.1745 23.1914 31.875C20.6393 28.3594 18.6797 25.7031 17.3125 23.9062C15.9583 22.0964 15.1185 21.1914 14.793 21.1914C14.7279 21.1914 14.6758 21.3867 14.6367 21.7773C14.6107 22.168 14.5846 22.6953 14.5586 23.3594C14.5456 24.0234 14.5326 24.7982 14.5195 25.6836C14.5195 26.569 14.5195 27.513 14.5195 28.5156C14.5195 29.8047 14.5195 31.1393 14.5195 32.5195C14.5326 33.8867 14.5391 35.1823 14.5391 36.4062C14.5391 37.6302 14.5391 38.7174 14.5391 39.668C14.5521 40.6055 14.5586 41.2891 14.5586 41.7188C14.5586 42.487 14.5651 43.2747 14.5781 44.082C14.6042 44.8893 14.6432 45.651 14.6953 46.3672C14.7604 47.0964 14.8451 47.7539 14.9492 48.3398C15.0534 48.9388 15.1901 49.401 15.3594 49.7266C15.5938 50.1823 15.8477 50.5664 16.1211 50.8789C16.3945 51.1914 16.681 51.4583 16.9805 51.6797C17.293 51.901 17.6185 52.0833 17.957 52.2266C18.2956 52.3698 18.6406 52.4935 18.9922 52.5977C19.2917 52.7018 19.513 52.793 19.6562 52.8711C19.7995 52.9492 19.8711 53.0599 19.8711 53.2031C19.8711 53.4375 19.6693 53.5547 19.2656 53.5547C19.0312 53.5547 18.7448 53.5156 18.4062 53.4375C18.0677 53.3594 17.6966 53.2617 17.293 53.1445C16.9023 53.0404 16.4857 52.9232 16.043 52.793C15.6003 52.6628 15.1576 52.5456 14.7148 52.4414C14.2201 52.3242 13.7253 52.2331 13.2305 52.168C12.7357 52.1029 12.2539 52.0703 11.7852 52.0703C11.4727 52.0703 11.1471 52.0768 10.8086 52.0898C10.4831 52.1159 10.1771 52.1354 9.89062 52.1484C9.60417 52.1745 9.35677 52.194 9.14844 52.207C8.9401 52.2331 8.79688 52.2461 8.71875 52.2461C8.47135 52.2461 8.22396 52.2266 7.97656 52.1875C7.74219 52.1484 7.625 52.0182 7.625 51.7969C7.625 51.6406 7.70964 51.5365 7.87891 51.4844C8.04818 51.4323 8.27604 51.4062 8.5625 51.4062C8.9401 51.4062 9.36328 51.3542 9.83203 51.25C10.3138 51.1589 10.7565 50.9831 11.1602 50.7227C11.707 50.3581 12.1237 49.8698 12.4102 49.2578C12.6966 48.6589 12.8919 47.8906 12.9961 46.9531C13.0482 46.5104 13.0872 46.0482 13.1133 45.5664C13.1523 45.0977 13.1784 44.5768 13.1914 44.0039C13.2174 43.418 13.237 42.7539 13.25 42.0117C13.263 41.2695 13.2695 40.4102 13.2695 39.4336C13.2695 39.0169 13.263 38.5742 13.25 38.1055C13.237 37.6237 13.2305 37.1224 13.2305 36.6016C13.2305 36.25 13.224 35.7617 13.2109 35.1367C13.2109 34.4987 13.2109 33.776 13.2109 32.9688C13.2109 32.1615 13.2044 31.2956 13.1914 30.3711C13.1784 29.4336 13.1589 28.4961 13.1328 27.5586C13.1068 26.6211 13.0742 25.7031 13.0352 24.8047C12.9961 23.8932 12.944 23.0599 12.8789 22.3047C12.8138 21.5365 12.7357 20.8724 12.6445 20.3125C12.5534 19.7526 12.4427 19.3424 12.3125 19.082C12.1693 18.7956 11.974 18.5742 11.7266 18.418C11.4792 18.2617 11.1862 18.1445 10.8477 18.0664C10.5091 17.9883 10.125 17.9427 9.69531 17.9297C9.27865 17.9036 8.82943 17.8841 8.34766 17.8711C8.03516 17.8711 7.76823 17.832 7.54688 17.7539C7.33854 17.6628 7.23438 17.4805 7.23438 17.207C7.23438 16.9987 7.30599 16.849 7.44922 16.7578C7.59245 16.6536 7.77474 16.6016 7.99609 16.6016H9.67578C10.4701 16.6016 11.4727 16.5625 12.6836 16.4844C13.2435 16.4453 13.7969 16.3867 14.3438 16.3086C14.9036 16.2305 15.3854 16.1914 15.7891 16.1914C15.9323 16.1914 16.069 16.2044 16.1992 16.2305C16.3294 16.2435 16.4336 16.276 16.5117 16.3281ZM52.0391 12.207C52.1302 12.207 52.2344 12.3177 52.3516 12.5391C52.4688 12.7604 52.5794 13.0208 52.6836 13.3203C52.8008 13.6068 52.9049 13.8997 52.9961 14.1992C53.1003 14.4857 53.1784 14.7005 53.2305 14.8438C53.5169 15.6901 53.8359 16.6471 54.1875 17.7148C54.5391 18.7826 54.9102 19.9219 55.3008 21.1328C55.7044 22.3438 56.1211 23.6068 56.5508 24.9219C56.9935 26.224 57.4297 27.5326 57.8594 28.8477C58.3021 30.1497 58.7383 31.4388 59.168 32.7148C59.5977 33.9909 60.0078 35.2083 60.3984 36.3672C60.7891 37.513 61.1536 38.5742 61.4922 39.5508C61.8438 40.5143 62.1562 41.3542 62.4297 42.0703C62.7422 42.9167 63.0482 43.5938 63.3477 44.1016C63.6471 44.6094 63.9661 45.013 64.3047 45.3125C64.6432 45.612 65.0143 45.8333 65.418 45.9766C65.8346 46.1198 66.3099 46.25 66.8438 46.3672C67.2344 46.4453 67.4297 46.5885 67.4297 46.7969C67.4297 46.9401 67.3581 47.0378 67.2148 47.0898C67.0716 47.1419 66.9089 47.168 66.7266 47.168C66.4401 47.168 66.0755 47.1615 65.6328 47.1484C65.1901 47.1354 64.6823 47.1289 64.1094 47.1289C63.6536 47.1289 63.1589 47.1354 62.625 47.1484C62.1042 47.1745 61.5638 47.207 61.0039 47.2461C60.1315 47.3112 59.3242 47.4154 58.582 47.5586C57.8398 47.7148 57.1693 47.8646 56.5703 48.0078C55.9714 48.1641 55.444 48.3008 54.9883 48.418C54.5456 48.5352 54.1875 48.5938 53.9141 48.5938C53.7708 48.5938 53.6536 48.5547 53.5625 48.4766C53.4844 48.4115 53.4453 48.3203 53.4453 48.2031C53.4453 48.0339 53.4909 47.8971 53.582 47.793C53.6732 47.6888 53.849 47.5977 54.1094 47.5195C54.2135 47.4935 54.3633 47.4544 54.5586 47.4023C54.7539 47.3503 54.9688 47.2917 55.2031 47.2266C55.4375 47.1615 55.6784 47.0833 55.9258 46.9922C56.1862 46.9141 56.4206 46.8229 56.6289 46.7188C56.8893 46.5755 57.1237 46.3867 57.332 46.1523C57.5404 45.918 57.6445 45.5599 57.6445 45.0781C57.6445 44.974 57.6315 44.8307 57.6055 44.6484C57.5924 44.4661 57.5664 44.3034 57.5273 44.1602C57.293 43.2487 57.0521 42.3242 56.8047 41.3867C56.5573 40.4492 56.3099 39.5573 56.0625 38.7109C55.8151 37.8646 55.5807 37.0833 55.3594 36.3672C55.138 35.651 54.9362 35.0651 54.7539 34.6094C54.4544 33.8542 54.1094 33.2812 53.7188 32.8906C53.3281 32.487 52.8984 32.1745 52.4297 31.9531C52.2995 31.901 52.0846 31.8164 51.7852 31.6992C51.4857 31.582 51.1276 31.4583 50.7109 31.3281C50.3073 31.1849 49.8711 31.0352 49.4023 30.8789C48.9336 30.7227 48.4714 30.5729 48.0156 30.4297C47.5599 30.2734 47.1302 30.1367 46.7266 30.0195C46.3359 29.8893 46.0104 29.7786 45.75 29.6875C45.4375 30.6901 45.125 31.6862 44.8125 32.6758C44.513 33.6523 44.2331 34.5573 43.9727 35.3906C43.7253 36.2109 43.5039 36.9336 43.3086 37.5586C43.1263 38.1836 42.9961 38.6393 42.918 38.9258C42.8138 39.2643 42.7422 39.5703 42.7031 39.8438C42.6641 40.1172 42.6445 40.3581 42.6445 40.5664C42.6445 40.944 42.6966 41.263 42.8008 41.5234C42.918 41.7708 43.0677 41.9857 43.25 42.168C43.4323 42.3372 43.6406 42.487 43.875 42.6172C44.1224 42.7344 44.3763 42.8516 44.6367 42.9688C44.8581 43.0729 45.0534 43.1901 45.2227 43.3203C45.3919 43.4375 45.4766 43.5872 45.4766 43.7695C45.4766 43.8867 45.4245 43.9909 45.3203 44.082C45.2292 44.1602 45.0794 44.1992 44.8711 44.1992C44.6497 44.1992 44.3698 44.1471 44.0312 44.043C43.6927 43.9388 43.3151 43.8086 42.8984 43.6523C42.4948 43.4961 42.0651 43.3333 41.6094 43.1641C41.1536 42.9818 40.6979 42.819 40.2422 42.6758C39.8776 42.5716 39.5 42.4805 39.1094 42.4023C38.7188 42.3112 38.3411 42.2396 37.9766 42.1875C37.612 42.1354 37.2799 42.0964 36.9805 42.0703C36.694 42.0312 36.4727 42.0052 36.3164 41.9922C35.9909 41.9661 35.7565 41.9206 35.6133 41.8555C35.4701 41.7904 35.3984 41.6667 35.3984 41.4844C35.3984 41.3542 35.4375 41.25 35.5156 41.1719C35.6068 41.0807 35.7565 41.0352 35.9648 41.0352C36.043 41.0352 36.1797 41.0417 36.375 41.0547C36.5833 41.0677 36.8177 41.0742 37.0781 41.0742C37.7031 41.0742 38.224 41.0352 38.6406 40.957C39.0573 40.8789 39.4089 40.7552 39.6953 40.5859C39.9818 40.4167 40.2161 40.2083 40.3984 39.9609C40.5938 39.7005 40.7695 39.3945 40.9258 39.043C41.082 38.7044 41.2708 38.2552 41.4922 37.6953C41.7135 37.1224 41.9479 36.5039 42.1953 35.8398C42.4557 35.1628 42.7161 34.4661 42.9766 33.75C43.237 33.0208 43.4779 32.3372 43.6992 31.6992C43.9336 31.0482 44.1354 30.4753 44.3047 29.9805C44.474 29.4727 44.5977 29.0951 44.6758 28.8477C44.7799 28.5091 44.9232 28.0469 45.1055 27.4609C45.3008 26.862 45.5156 26.1979 45.75 25.4688C45.9844 24.7396 46.2188 23.9844 46.4531 23.2031C46.7005 22.4089 46.9219 21.6536 47.1172 20.9375C47.3255 20.2083 47.4883 19.5508 47.6055 18.9648C47.7357 18.3659 47.8008 17.8971 47.8008 17.5586C47.8008 17.2982 47.7292 17.0833 47.5859 16.9141C47.4427 16.7318 47.2083 16.6406 46.8828 16.6406C46.5964 16.6406 46.2708 16.6602 45.9062 16.6992C45.5547 16.7383 45.1966 16.7773 44.832 16.8164C44.4674 16.8555 44.1094 16.8945 43.7578 16.9336C43.4193 16.9727 43.1263 16.9922 42.8789 16.9922C42.3971 16.9922 42.1562 16.8229 42.1562 16.4844C42.1562 16.1719 42.3841 15.9961 42.8398 15.957C43.1523 15.944 43.5039 15.9115 43.8945 15.8594C44.2982 15.8073 44.7214 15.7357 45.1641 15.6445C45.6068 15.5534 46.0495 15.4427 46.4922 15.3125C46.9479 15.1693 47.3841 15 47.8008 14.8047C48.4648 14.5052 49.0312 14.1992 49.5 13.8867C49.9688 13.5742 50.3659 13.2943 50.6914 13.0469C51.0299 12.7995 51.3034 12.5977 51.5117 12.4414C51.7331 12.2852 51.9089 12.207 52.0391 12.207ZM46.082 28.6328C46.4857 28.776 47 28.9583 47.625 29.1797C48.263 29.388 48.9076 29.5964 49.5586 29.8047C50.2096 30 50.8086 30.1693 51.3555 30.3125C51.9154 30.4557 52.319 30.5273 52.5664 30.5273C52.7227 30.5273 52.8594 30.4753 52.9766 30.3711C53.0938 30.2539 53.1523 30.0781 53.1523 29.8438C53.1523 29.6484 53.0938 29.2969 52.9766 28.7891C52.8594 28.2682 52.7096 27.6823 52.5273 27.0312C52.3581 26.3672 52.1693 25.6771 51.9609 24.9609C51.7526 24.2318 51.5573 23.5612 51.375 22.9492C51.1927 22.3372 51.0365 21.8294 50.9062 21.4258C50.7891 21.0091 50.724 20.7747 50.7109 20.7227C50.6589 20.5664 50.5872 20.3451 50.4961 20.0586C50.418 19.7591 50.3268 19.4661 50.2227 19.1797C50.1315 18.8932 50.0339 18.6458 49.9297 18.4375C49.8385 18.2292 49.7669 18.125 49.7148 18.125C49.6628 18.125 49.5911 18.1966 49.5 18.3398C49.4219 18.4831 49.3372 18.6589 49.2461 18.8672C49.1549 19.0625 49.0638 19.2773 48.9727 19.5117C48.8815 19.7461 48.8099 19.9609 48.7578 20.1562L46.082 28.6328Z" fill="white"/>
</svg>